PathFileType	4	(X/Y/Z)	33_1_31_p1_0-352_filt_butterworth.trc
DataRate	CameraRate	NumFrames	NumMarkers	Units	OrigDataRate	OrigDataStartFrame	OrigNumFrames
59.0	59.0	5	27	m	59.0	264	352
Frame#	Time	RHip			RKnee			RAnkle			RBigToe			RSmallToe			RHeel			LHip			LKnee			LAnkle			LBigToe			LSmallToe			LHeel			Neck			Head			Nose			RShoulder			RElbow			RWrist			RThumb			RIndex			RPinky			LShoulder			LElbow			LWrist			LThumb			LIndex			LPinky			
		X1	Y1	Z1	X2	Y2	Z2	X3	Y3	Z3	X4	Y4	Z4	X5	Y5	Z5	X6	Y6	Z6	X7	Y7	Z7	X8	Y8	Z8	X9	Y9	Z9	X10	Y10	Z10	X11	Y11	Z11	X12	Y12	Z12	X13	Y13	Z13	X14	Y14	Z14	X15	Y15	Z15	X16	Y16	Z16	X17	Y17	Z17	X18	Y18	Z18	X19	Y19	Z19	X20	Y20	Z20	X21	Y21	Z21	X22	Y22	Z22	X23	Y23	Z23	X24	Y24	Z24	X25	Y25	Z25	X26	Y26	Z26	X27	Y27	Z27	
264	4.47457627118644	0.2553412081219793	0.2696554710068906	0.17622518474205923	0.2493612011148751	0.49634190076162354	0.5687310794943202	0.24274906441503682	0.7310211020104936	0.932852559068068	0.2505908842857007	0.5956392413289018	1.0182811833733134	0.30570620778683255	0.66154407062399	1.0092009231463095	0.21473656989865308	0.8420723674843053	0.9849690629234221	0.07349775072986388	0.31084929432720354	0.15771263463291507	0.05652732198442157	0.5066680768267801	0.5547105751383917	0.07182123408252274	0.7854111373164876	0.9449343236025092	0.0877312533641839	0.5767784080433755	1.0091075407354504	0.026628146614668606	0.6637285238797506	1.0073389786111675	0.08814483572508128	0.8326149819120205	0.9815238937545617	0.2419741843963376	0.006210722429672838	-0.37122909175082064	0.2818231588767044	-0.19180739295131033	-0.5395952338453183	0.21770992782827486	-0.17959155691821907	-0.41201624991429586	0.33790617292428476	-0.02908899403116836	-0.24019556533145112	0.21119021372948643	-0.15153202071270305	-0.059549463643881244	0.163345967875235	-0.15040316441814364	-0.2779177616298219	0.14354368213538066	-0.1864468737983509	-0.3559131620932263	0.16914968709039035	-0.2485423279781232	-0.3546981431691395	0.15443971932721148	-0.31237085842243595	-0.31148249556370877	0.12664298176214853	0.08126965870144433	-0.36977090791471035	-0.13478823991253225	0.051936642329633846	-0.44884745115129926	0.022921649699369738	-0.04485949258172811	-0.3984900899206255	0.1031076405838477	-0.11972385426654625	-0.3625695632372016	0.11760709880730273	-0.16903359886440697	-0.3730457278404698	0.08100328744143731	-0.19627448691624877	-0.3654613385135198
265	4.491525423728813	0.25542043135207154	0.27038763819334105	0.17717482641212723	0.24929048065684734	0.4961202743336982	0.5677654365715048	0.2426247236783214	0.7312611377157845	0.9332443263428123	0.2504148145546512	0.5953257203599193	1.0169924304983478	0.3056161318712017	0.6617538886621551	1.009248799397321	0.21485402788879832	0.8421822531896441	0.9850287032219609	0.07343626803897939	0.3111465369339411	0.15801506995224196	0.056980947724021645	0.5102505337980557	0.5547191545106589	0.07194815194029097	0.7855197341608695	0.9460388775342948	0.08776603899479112	0.5766409809162772	1.0092057841755155	0.028244305191390675	0.6646711786086473	1.0073758982600514	0.08835894276031658	0.833327295490529	0.9827267591953843	0.24197596345764572	0.006281087978043936	-0.37126659433868653	0.28170780519284555	-0.1919965800669349	-0.5395766044521816	0.21721562075713616	-0.17942694428479483	-0.4120925091072929	0.33742269023478777	-0.029841380846637837	-0.23859478765476153	0.2117501120929293	-0.15870894836861174	-0.05800425175169668	0.1638628451281117	-0.15042467219536113	-0.27783396414164313	0.1436475580979682	-0.1864645442554648	-0.3575997537989016	0.16877262332566287	-0.24818258326255763	-0.35594093432961665	0.15434299462125953	-0.3120154098355231	-0.3119957127259983	0.12654905623287158	0.08202083920048245	-0.37214548191712193	-0.13634602697696646	0.056489157118042824	-0.45074871767556784	0.020069478567014163	-0.04477685030344771	-0.4004261032638706	0.10307668674976506	-0.12034044728690789	-0.363793440721771	0.11446633852494062	-0.16872105397976803	-0.3740330410773229	0.08114055184018423	-0.19868502325988072	-0.36835522623215744
266	4.508474576271187	0.25554755347652736	0.27134254573621325	0.17841565873337398	0.24921816119379617	0.4957897455347737	0.5664376890637175	0.24233772650167118	0.7318805709066729	0.9342406436698416	0.25037408746161205	0.5948188960235721	1.015563139522727	0.30553276772373666	0.6617608885818409	1.009311880834516	0.2149330076082102	0.8422512638405785	0.9850580641292299	0.07337077154300245	0.3113754830376872	0.15796701487798606	0.057175637372525054	0.5118043832135695	0.5547486357495925	0.07200954217145564	0.7855547921004125	0.9464379675106991	0.08779847538629879	0.5766199216040254	1.0092308613522536	0.02946437723093103	0.6653804577382156	1.0073503465154883	0.08844491615669282	0.8336780486906232	0.9832035729526565	0.24197673591243063	0.0062943440339665695	-0.3712890629145501	0.2815932981034107	-0.19208372515747263	-0.5395628981369267	0.21711075494148024	-0.1791955739249797	-0.41220064374244403	0.33719507002345694	-0.030018054345133768	-0.2380432785436593	0.21277945228438438	-0.16664327247337618	-0.0562937707451721	0.1651054522866732	-0.150673449285447	-0.2778503889837618	0.14368712834464104	-0.18625322014752987	-0.35831143951643385	0.16791171875164695	-0.24838866876825966	-0.3562579276243279	0.1543257172441717	-0.3118485133694984	-0.3123568696035049	0.12595770735905135	0.08186673275378721	-0.3733791163977339	-0.13842223176417465	0.06254567178591698	-0.4533340169328444	0.016581718944037097	-0.04444693215652892	-0.4027944434653104	0.10305702542567971	-0.12071612062641987	-0.36458305994806584	0.11324116860557971	-0.16900249645034232	-0.3752190443875201	0.08102882329458808	-0.20063239035541097	-0.3712701811834537
267	4.52542372881356	0.25565319097635736	0.2720318491328634	0.17933950735531318	0.24917616246319466	0.49549521707421706	0.5653720926530682	0.24195780573710482	0.7327259643950742	0.9355611424340589	0.250309455617545	0.5947640743658666	1.0146714621951454	0.30546732106538727	0.6616780985448676	1.009364429791861	0.21495571938386376	0.8422763165997612	0.9850567304162743	0.07337945557303076	0.3116592055171965	0.15778077282923722	0.05721832527020598	0.5121524034547981	0.5547343133264884	0.0720170642287064	0.7855533211047836	0.9464196679428145	0.08780728095462711	0.5766587685262696	1.0092055336580759	0.029930631498359096	0.6656732730577022	1.0073000611568923	0.08843805785953926	0.8336885491179611	0.9832567088265751	0.24197941041002355	0.006275089051609161	-0.3713023425628727	0.2815974238395493	-0.1921480733459812	-0.5395571937100329	0.2172283701805684	-0.17913270710210305	-0.41224114073300266	0.33720225341933946	-0.029865000358608264	-0.23811659778002064	0.21400533177605208	-0.17335613700137262	-0.055188222288424044	0.16672056200702925	-0.15128892637288077	-0.2782818227676876	0.14365343296601357	-0.18608844389623713	-0.3584201554932595	0.16678897828655803	-0.24866839746099592	-0.35614902750148253	0.15433590531708619	-0.3118349984500155	-0.31270850234311554	0.1246365753393911	0.08201130777454027	-0.3736586417858653	-0.14001344881268094	0.06713791087284453	-0.45541563429235	0.013970670703084302	-0.04384890439330072	-0.4044616506833716	0.10305369833290104	-0.12127865343597188	-0.36544301919628025	0.11372496586345797	-0.1704799591555434	-0.3760162619269871	0.0804613739421126	-0.20195677944874998	-0.3731609144391434
268	4.5423728813559325	0.2556908042349711	0.27222381997152734	0.17968216230288792	0.24914935760746748	0.4953697950859861	0.5649080585005685	0.24166655920648944	0.7333832866911193	0.936546606011085	0.24980260779083102	0.5964877520070351	1.01455072351241	0.30544479334227004	0.66168236472116	1.009377924324196	0.21495051303924712	0.8422816089250984	0.9850406641754594	0.07337330403020927	0.3115795856364072	0.15764453197680167	0.057174849848605803	0.5118758696941534	0.554715859171061	0.07199858825089676	0.7855468609738033	0.9463104869916721	0.08778974106901803	0.5766331840066443	1.0091518633500558	0.02992141280948589	0.6657322969279179	1.0072707347141594	0.0884080213190852	0.8335638172282408	0.983247902475002	0.2419818659525201	0.006245935822977193	-0.37130326349816556	0.2820595558904126	-0.19224582301880033	-0.5395957644999951	0.21741077297771177	-0.17929702235951506	-0.4121901876747679	0.33748659493869615	-0.028800642260737017	-0.2387303808637773	0.2153236590522614	-0.1777913363190064	-0.05486624041983741	0.16792569469294044	-0.15263739418431568	-0.27910989942618747	0.143633031357754	-0.18607844630515674	-0.3583037753009823	0.16585049830923604	-0.24808991651215356	-0.35630737652415545	0.15432347612534633	-0.31187471970315034	-0.3131003729576448	0.12308974279014685	0.08267764504022916	-0.3732139505538918	-0.1406534410567262	0.06892612270121368	-0.4564085075401975	0.013021619951418728	-0.04343631787104762	-0.4050333318598017	0.10306360705464869	-0.12209360935695099	-0.36648302084599277	0.11529536416800251	-0.17360253248352278	-0.3760784320401925	0.07935999320539541	-0.20271076823687903	-0.37354498371548656
